<svg width="16" height="16" viewBox="0 0 16 16" xmlns="http://www.w3.org/2000/svg">
  <path d="M4 2C4 1.44772 3.55228 1 3 1C2.44772 1 2 1.44772 2 2V10C2 10.5523 2.44772 11 3 11C3.55228 11 4 10.5523 4 10V2Z" fill="#C5C5C5"/>
  <path d="M13 6C13 4.89543 12.1046 4 11 4C9.89543 4 9 4.89543 9 6C9 6.74028 9.4022 7.38663 10 7.73244V9C10 9.55228 10.4477 10 11 10H11.5C12.3284 10 13 10.6716 13 11.5C13 12.3284 12.3284 13 11.5 13H9.73244C9.38663 13.5978 8.74028 14 8 14C6.89543 14 6 13.1046 6 12C6 11.2597 6.4022 10.6134 7 10.2676V9C7 8.44772 6.55228 8 6 8H5V10H6V10.2676C5.4022 10.6134 5 11.2597 5 12C5 13.6569 6.34315 15 8 15C9.65685 15 11 13.6569 11 12V10.7324C11.5978 10.3866 12 9.74028 12 9V7.73244C12.5978 7.38663 13 6.74028 13 6Z" fill="#C5C5C5"/>
</svg>
